<?xml version="1.0" encoding="UTF-8" standalone="no"?>
<!-- Created with Inkscape (http://www.inkscape.org/) -->

<svg
   xmlns:dc="http://purl.org/dc/elements/1.1/"
   xmlns:cc="http://creativecommons.org/ns#"
   xmlns:rdf="http://www.w3.org/1999/02/22-rdf-syntax-ns#"
   xmlns:svg="http://www.w3.org/2000/svg"
   xmlns="http://www.w3.org/2000/svg"
   xmlns:xlink="http://www.w3.org/1999/xlink"
   xmlns:sodipodi="http://sodipodi.sourceforge.net/DTD/sodipodi-0.dtd"
   xmlns:inkscape="http://www.inkscape.org/namespaces/inkscape"
   width="15"
   height="5"
   id="svg5133"
   version="1.1"
   inkscape:version="0.48.4 r9939"
   sodipodi:docname="bullet.svg">
  <defs
     id="defs5135">
    <linearGradient
       id="linearGradient5693">
      <stop
         style="stop-color:#d4ab47;stop-opacity:1;"
         offset="0"
         id="stop5695" />
      <stop
         id="stop5705"
         offset="0.3766284"
         style="stop-color:#ebd7a8;stop-opacity:1;" />
      <stop
         style="stop-color:#5b4715;stop-opacity:1;"
         offset="1"
         id="stop5697" />
    </linearGradient>
    <linearGradient
       inkscape:collect="always"
       xlink:href="#linearGradient5693"
       id="linearGradient5703"
       x1="5.9285712"
       y1="-7.2209821"
       x2="5.8843322"
       y2="-1.640625"
       gradientUnits="userSpaceOnUse"
       gradientTransform="translate(-5.9564224,1054.9676)" />
  </defs>
  <sodipodi:namedview
     id="base"
     pagecolor="#ffffff"
     bordercolor="#666666"
     borderopacity="1.0"
     inkscape:pageopacity="0.0"
     inkscape:pageshadow="2"
     inkscape:zoom="31.678384"
     inkscape:cx="7.4812137"
     inkscape:cy="7.4591828"
     inkscape:document-units="px"
     inkscape:current-layer="layer1"
     showgrid="false"
     inkscape:window-width="1600"
     inkscape:window-height="851"
     inkscape:window-x="0"
     inkscape:window-y="27"
     inkscape:window-maximized="1">
    <inkscape:grid
       type="xygrid"
       id="grid5141"
       empspacing="5"
       visible="true"
       enabled="true"
       snapvisiblegridlinesonly="true" />
  </sodipodi:namedview>
  <metadata
     id="metadata5138">
    <rdf:RDF>
      <cc:Work
         rdf:about="">
        <dc:format>image/svg+xml</dc:format>
        <dc:type
           rdf:resource="http://purl.org/dc/dcmitype/StillImage" />
        <dc:title></dc:title>
      </cc:Work>
    </rdf:RDF>
  </metadata>
  <g
     inkscape:label="Layer 1"
     inkscape:groupmode="layer"
     id="layer1"
     transform="translate(0,-1047.3622)">
    <path
       style="fill:url(#linearGradient5703);fill-opacity:1;stroke:none"
       d="m 7.0748276,1048.7176 -4.28125,0.031 -0.0625,0.094 -1,0.031 c 0,0 -1.71875005,0.2991 -1.71875005,0.9687 0,0.016 0.02224,0.016 0.03125,0.031 -0.0151,0.019 -0.03125,0.042 -0.03125,0.063 0,0.6696 1.71875005,0.9375 1.71875005,0.9375 l 1,0.031 0.0625,0.094 4.28125,0.031 0.1875,-0.1875 0.21875,0.031 0.03125,0.063 0.125,0.125 c 0,0 0.0089,-0.02 0.1875,-0.031 0.08636,-0.01 0.130526,-0.3394 0.15625,-0.6562 8.71e-4,-0.011 -8.22e-4,-0.021 0,-0.031 l 0.03125,-0.2812 c 0,0 9.06e-4,-0.142 0,-0.1875 9.06e-4,-0.046 0,-0.1875 0,-0.1875 l -0.03125,-0.2188 0,-0.031 c -0.02413,-0.3426 -0.06272,-0.6817 -0.15625,-0.6875 -0.178572,-0.011 -0.1875,-0.031 -0.1875,-0.031 l -0.125,0.094 -0.03125,0.094 -0.21875,0 -0.1875,-0.1875 z"
       id="path5671"
       inkscape:connector-curvature="0"
       inkscape:export-filename="/home/steven/Games/600.255/assign1/bitcity/images/bullet.png"
       inkscape:export-xdpi="90"
       inkscape:export-ydpi="90" />
  </g>
</svg>
