<?xml version="1.0" encoding="UTF-8" standalone="no"?>
<!-- Created with Inkscape (http://www.inkscape.org/) -->

<svg
   xmlns:dc="http://purl.org/dc/elements/1.1/"
   xmlns:cc="http://creativecommons.org/ns#"
   xmlns:rdf="http://www.w3.org/1999/02/22-rdf-syntax-ns#"
   xmlns:svg="http://www.w3.org/2000/svg"
   xmlns="http://www.w3.org/2000/svg"
   xmlns:sodipodi="http://sodipodi.sourceforge.net/DTD/sodipodi-0.dtd"
   xmlns:inkscape="http://www.inkscape.org/namespaces/inkscape"
   width="10"
   height="10"
   id="svg2"
   version="1.1"
   inkscape:version="0.48.4 r9939"
   sodipodi:docname="arc.svg"
   inkscape:export-filename="/home/steven/games/600.255/bitcity/images/arc.png"
   inkscape:export-xdpi="90"
   inkscape:export-ydpi="90">
  <defs
     id="defs4" />
  <sodipodi:namedview
     id="base"
     pagecolor="#ffffff"
     bordercolor="#666666"
     borderopacity="1.0"
     inkscape:pageopacity="0.0"
     inkscape:pageshadow="2"
     inkscape:zoom="11.2"
     inkscape:cx="-20.909932"
     inkscape:cy="12.923079"
     inkscape:document-units="px"
     inkscape:current-layer="layer1"
     showgrid="true"
     inkscape:window-width="1920"
     inkscape:window-height="1023"
     inkscape:window-x="0"
     inkscape:window-y="29"
     inkscape:window-maximized="1">
    <inkscape:grid
       type="xygrid"
       id="grid3004"
       empspacing="5"
       visible="true"
       enabled="true"
       snapvisiblegridlinesonly="true" />
  </sodipodi:namedview>
  <metadata
     id="metadata7">
    <rdf:RDF>
      <cc:Work
         rdf:about="">
        <dc:format>image/svg+xml</dc:format>
        <dc:type
           rdf:resource="http://purl.org/dc/dcmitype/StillImage" />
        <dc:title></dc:title>
      </cc:Work>
    </rdf:RDF>
  </metadata>
  <g
     inkscape:label="Layer 1"
     inkscape:groupmode="layer"
     id="layer1"
     transform="translate(0,-1042.3622)">
    <path
       sodipodi:type="arc"
       style="opacity:0.22355769;fill:#00f938;fill-opacity:1;stroke:none"
       id="path3006"
       sodipodi:cx="10"
       sodipodi:cy="5"
       sodipodi:rx="5"
       sodipodi:ry="5"
       d="m 15,5 c 0,2.7614237 -2.238576,5 -5,5 C 7.2385763,10 5,7.7614237 5,5 5,2.2385763 7.2385763,0 10,0 c 2.761424,0 5,2.2385763 5,5 z"
       transform="translate(-5,1042.3622)" />
    <path
       style="fill:#00a41a;fill-opacity:0.53333378;stroke:none;opacity:0.71394230999999997"
       d="M 1,2 C 1,2 1,1 2,1 3,1 4,0 5,0 6,0 7,1 7,1 7,1 7,2 8,2 9,2 10,5 10,5 10,5 9,4 8,4 7,4 9,5 9,5 9,5 10,6 9,7 8,8 8,9 8,9 L 5,10 C 5,10 2,10 2,8 2,6 0,6 0,6 0,6 1,6 1,5 1,4 0,3 0,3 z"
       id="path6820"
       inkscape:connector-curvature="0"
       transform="translate(0,1042.3622)"
       sodipodi:nodetypes="csscscscsccscscc" />
    <path
       style="fill:#00b284;stroke:none;stroke-width:1px;stroke-linecap:butt;stroke-linejoin:miter;stroke-opacity:1;fill-opacity:0.78039426;opacity:0.66586537999999995"
       d="M 5,2 C 5,2 5,1 4,2 3,3 3,4 2,4 1,4 3,6 3,7 3,8 5,9 5,9 5,9 6,8 6,7 6,6 8,7 8,7 8,7 9,7 8,6 7,5 7,4 7,4 7,4 8,3 8,3 8,3 6,2 6,2 z"
       id="path6822"
       inkscape:connector-curvature="0"
       transform="translate(0,1042.3622)" />
  </g>
</svg>
